HIERARCHY
ROOT SimulationBone
{
	OFFSET 0.000000 0.000000 0.000000
	CHANNELS 6 Xposition Yposition Zposition Zrotation Yrotation Xrotation 
	JOINT Hips
	{
		OFFSET 0.000000 0.000000 0.000000
		CHANNELS 6 Xposition Yposition Zposition Zrotation Yrotation Xrotation 
		JOINT LeftUpLeg
		{
			OFFSET 0.103458 1.857835 10.548497
			CHANNELS 3 Zrotation Yrotation Xrotation
			JOINT LeftLeg
			{
				OFFSET 43.500000 -0.000034 -0.000013
				CHANNELS 3 Zrotation Yrotation Xrotation
				JOINT LeftFoot
				{
					OFFSET 42.372192 0.000011 0.000010
					CHANNELS 3 Zrotation Yrotation Xrotation
					JOINT LeftToe
					{
						OFFSET 17.299994 -0.000002 -0.000009
						CHANNELS 3 Zrotation Yrotation Xrotation
						End Site
						{
							OFFSET 0.000000 0.000000 0.000000
						}
					}
				}
			}
		}
		JOINT RightUpLeg
		{
			OFFSET 0.103456 1.857832 -10.548508
			CHANNELS 3 Zrotation Yrotation Xrotation
			JOINT RightLeg
			{
				OFFSET 43.500038 -0.000027 0.000004
				CHANNELS 3 Zrotation Yrotation Xrotation
				JOINT RightFoot
				{
					OFFSET 42.372261 -0.000011 0.000014
					CHANNELS 3 Zrotation Yrotation Xrotation
					JOINT RightToe
					{
						OFFSET 17.299995 -0.000004 0.000011
						CHANNELS 3 Zrotation Yrotation Xrotation
						End Site
						{
							OFFSET 0.000000 0.000000 0.000000
						}
					}
				}
			}
		}
		JOINT Spine
		{
			OFFSET 6.901970 -2.603727 -0.000002
			CHANNELS 3 Zrotation Yrotation Xrotation
			JOINT Spine1
			{
				OFFSET 12.588097 -0.000001 0.000008
				CHANNELS 3 Zrotation Yrotation Xrotation
				JOINT Spine2
				{
					OFFSET 12.343203 0.000000 -0.000005
					CHANNELS 3 Zrotation Yrotation Xrotation
					JOINT Neck
					{
						OFFSET 25.832903 -0.000002 -0.000005
						CHANNELS 3 Zrotation Yrotation Xrotation
						JOINT Head
						{
							OFFSET 11.766603 0.000011 -0.000000
							CHANNELS 3 Zrotation Yrotation Xrotation
							End Site
							{
								OFFSET 0.000000 0.000000 0.000000
							}
						}
					}
					JOINT LeftShoulder
					{
						OFFSET 19.745899 -1.480377 6.000100
						CHANNELS 3 Zrotation Yrotation Xrotation
						JOINT LeftArm
						{
							OFFSET 11.284134 -0.000021 -0.000017
							CHANNELS 3 Zrotation Yrotation Xrotation
							JOINT LeftForeArm
							{
								OFFSET 33.000053 0.000002 0.000032
								CHANNELS 3 Zrotation Yrotation Xrotation
								JOINT LeftHand
								{
									OFFSET 25.200005 0.000020 0.000008
									CHANNELS 3 Zrotation Yrotation Xrotation
									End Site
									{
										OFFSET 0.000000 0.000000 0.000000
									}
								}
							}
						}
					}
					JOINT RightShoulder
					{
						OFFSET 19.746092 -1.480377 -6.000073
						CHANNELS 3 Zrotation Yrotation Xrotation
						JOINT RightArm
						{
							OFFSET 11.284133 -0.000016 -0.000019
							CHANNELS 3 Zrotation Yrotation Xrotation
							JOINT RightForeArm
							{
								OFFSET 33.000092 0.000022 0.000006
								CHANNELS 3 Zrotation Yrotation Xrotation
								JOINT RightHand
								{
									OFFSET 25.199783 0.000138 0.000434
									CHANNELS 3 Zrotation Yrotation Xrotation
									End Site
									{
										OFFSET 0.000000 0.000000 0.000000
									}
								}
							}
						}
					}
				}
			}
		}
	}
}
MOTION
Frames: 9
Frame Time: 0.016667
174.906509 0.000000 -507.523479 0.000000 154.805652 0.000000 -14.261241 70.487091 -1.811560 73.815578 -1.511115 -175.958876 155.711948 -12.283099 175.789999 -101.217201 1.012566 2.349935 81.478364 -4.427523 -11.535559 21.454553 0.003092 0.000001 141.344617 21.513904 169.306183 -73.600424 -5.166718 -2.699443 115.003309 0.539531 24.905189 21.454557 -0.003104 -0.000017 14.942142 0.274837 0.128398 19.872331 0.523451 0.302103 19.554232 0.525397 0.298950 -21.128263 17.037043 11.489809 -36.415791 -24.477602 32.232925 165.537953 -76.499890 13.291995 -7.248393 56.996718 49.888355 -30.857670 -12.847534 1.107839 5.645232 -10.240796 -13.063886 139.825608 73.240545 -39.692006 -41.838425 -13.833107 15.235507 -78.409328 19.401704 -3.203564 -9.937797 10.227267 -45.420067 
171.453849 0.000000 -508.847850 0.000000 155.517908 0.000000 -15.001167 70.520912 -1.607400 73.080701 -2.817223 -177.607125 149.737625 -12.085859 172.233147 -105.523521 1.400140 2.469314 83.823426 -4.190635 -11.211058 21.454549 0.003092 0.000000 143.094195 22.572717 169.206413 -72.173774 -4.773744 -3.180765 116.887134 0.460911 24.408555 21.454559 -0.003108 -0.000018 14.868922 -0.036239 0.181575 19.724888 -0.102968 0.354288 19.406793 -0.100695 0.354919 -20.236170 16.721535 13.787039 -36.638558 -24.679111 34.463413 167.731886 -76.905373 11.039091 -4.812370 56.388405 51.643716 -32.594544 -13.120576 1.163550 5.200399 -11.310218 -11.762332 138.155032 72.898448 -41.415272 -44.987730 -12.415101 18.472253 -81.617267 17.513912 -3.199076 -12.102482 11.657992 -45.678805 
167.857323 0.000000 -510.139694 0.000000 156.247389 0.000000 -15.777375 70.640137 -1.415984 72.477825 -3.712981 -178.882813 143.338964 -12.363103 169.167817 -108.475909 1.438055 2.672833 85.721687 -4.158036 -11.282521 21.454548 0.003092 0.000000 145.430873 23.373196 169.870998 -70.324890 -4.664872 -3.401525 118.006803 0.382202 24.231256 21.454560 -0.003109 -0.000018 14.801722 -0.268331 0.286277 19.589532 -0.581304 0.522944 19.271430 -0.578004 0.526461 -18.907879 16.434449 15.747158 -37.200693 -24.957519 36.469094 169.720952 -77.124203 9.004027 -2.286831 55.221388 53.303214 -34.685448 -13.333530 1.220065 5.147149 -12.152254 -11.913125 135.630274 72.969762 -43.974165 -47.713453 -11.726439 21.995323 -84.757715 15.499837 -3.205481 -14.112119 12.555459 -47.160864 
164.121333 0.000000 -511.399150 0.000000 156.992866 0.000000 -16.527427 70.835970 -1.255294 71.984146 -4.308352 -179.839277 136.801386 -12.854670 166.598445 -109.956807 1.209703 2.914997 87.257418 -4.203214 -11.505500 21.454548 0.003092 -0.000000 148.418053 23.987359 171.122719 -67.951720 -4.708805 -3.417983 118.421810 0.313836 24.224475 21.454559 -0.003109 -0.000018 14.739596 -0.448797 0.427338 19.463769 -0.963127 0.773029 19.145661 -0.958310 0.778847 -17.492774 16.111743 17.374540 -37.714887 -25.146352 38.070212 171.219753 -77.346203 7.469471 0.054433 53.817210 54.597550 -36.946522 -13.432767 1.277560 5.146911 -12.904576 -12.375111 132.735107 73.233986 -46.890374 -49.923574 -11.442631 25.399204 -87.644787 13.476557 -3.194371 -15.810569 13.285806 -48.869398 
160.250283 0.000000 -512.626358 0.000000 157.753057 0.000000 -17.187967 71.099617 -1.139960 71.590184 -4.716275 179.474114 130.404074 -13.274796 164.484069 -109.848108 0.789995 3.123059 88.514668 -4.217439 -11.627039 21.454551 0.003092 0.000000 152.115320 24.483599 172.786642 -64.953828 -4.775709 -3.280120 118.191997 0.276889 24.239341 21.454558 -0.003109 -0.000018 14.681698 -0.605036 0.589673 19.345698 -1.300194 1.069820 19.027580 -1.293578 1.077668 -16.343432 15.711891 18.673377 -37.781354 -25.102346 39.076758 172.020007 -77.764212 6.641002 2.042897 52.512990 55.365467 -39.192099 -13.364997 1.330113 4.823232 -13.700114 -11.988603 130.066265 73.499614 -49.572673 -51.480781 -11.290669 28.227842 -90.097755 11.564812 -3.163888 -17.030991 14.286527 -49.827189 
156.248574 0.000000 -513.821459 0.000000 158.526629 0.000000 -17.695555 71.425035 -1.073691 71.280877 -5.001927 179.021616 124.403213 -13.402658 162.760377 -108.083734 0.247087 3.235671 89.512625 -4.145170 -11.491877 21.454554 0.003092 0.000000 156.578220 24.873963 174.734736 -61.214097 -4.751185 -3.023752 117.297262 0.303713 24.167025 21.454557 -0.003109 -0.000017 14.621976 -0.754760 0.763571 19.223125 -1.625942 1.391089 18.904988 -1.617378 1.400898 -15.721334 15.280920 19.654644 -37.095587 -24.780018 39.406931 171.842445 -78.514962 6.797896 3.610307 51.586149 55.605643 -41.244781 -13.116124 1.369061 3.878231 -14.595453 -9.968102 128.191842 73.676414 -51.454944 -52.274407 -11.158637 30.137223 -91.959571 9.897448 -3.128506 -17.638561 15.777067 -49.368979 
152.120608 0.000000 -514.984591 0.000000 159.312192 0.000000 -17.989821 71.817192 -1.027051 70.984109 -5.033830 178.813214 118.980842 -13.302308 161.473376 -104.816505 -0.374381 3.305112 90.015233 -4.100429 -11.354991 21.454555 0.003092 0.000000 161.824680 24.933502 176.980010 -56.543392 -4.580046 -2.660005 115.396796 0.463097 24.059311 21.454557 -0.003109 -0.000017 14.533664 -0.876755 0.960603 19.042402 -1.899705 1.763828 18.724267 -1.888884 1.775282 -15.517664 15.162832 20.349143 -35.736177 -24.494782 39.406632 170.000990 -79.509816 8.636954 4.831389 51.045858 55.685243 -42.964064 -12.826757 1.395242 2.469827 -15.404004 -7.101768 127.004906 73.953979 -52.631942 -52.440610 -11.451914 31.348744 -93.157209 8.653394 -3.094794 -17.694372 16.946078 -48.047952 
147.870789 0.000000 -516.115894 0.000000 160.108300 0.000000 -18.030674 72.276317 -0.964186 70.614072 -4.712149 178.846638 114.310224 -13.037234 160.665891 -100.255279 -1.076806 3.366299 89.878957 -4.142628 -11.372300 21.454551 0.003092 -0.000002 167.722377 24.450716 179.440869 -50.873455 -4.210666 -2.191937 112.070345 0.839913 23.875025 21.454558 -0.003109 -0.000017 14.386345 -0.954319 1.185065 18.742799 -2.088068 2.199984 18.424720 -2.074611 2.212564 -15.480373 15.594390 20.821980 -33.973271 -24.531411 39.442545 165.797676 -80.547836 12.863709 5.714910 50.803877 55.946181 -44.208222 -12.638011 1.417562 0.936364 -15.956270 -4.436347 126.446231 74.470310 -53.153117 -52.171304 -12.492610 32.036157 -93.634397 8.008836 -3.068328 -17.279534 17.001314 -46.605201 
143.503519 0.000000 -517.215508 0.000000 160.913451 0.000000 -17.851129 72.772690 -0.865764 70.101382 -4.253783 179.027824 110.551337 -12.449904 160.118964 -94.615618 -1.998931 3.250971 89.588920 -3.972245 -10.883091 21.454548 0.003092 -0.000002 173.705371 23.597702 -178.271189 -44.725727 -3.525974 -1.642901 106.890813 1.504337 23.058691 21.454560 -0.003109 -0.000017 14.155227 -1.028553 1.390911 18.275300 -2.264003 2.602077 17.957293 -2.248118 2.615709 -15.174052 16.117769 21.261658 -32.497923 -24.682711 39.602802 160.515002 -81.326638 18.180073 5.984616 50.691822 56.379002 -44.786321 -12.540026 1.427943 -0.296850 -16.250207 -2.388909 127.678622 74.929009 -51.869540 -51.570403 -13.853718 31.614462 -93.325901 8.076386 -3.061564 -16.093469 16.334990 -45.240840 
